<svg width="117" height="30" viewBox="0 0 117 30" fill="none" xmlns="http://www.w3.org/2000/svg">
<path d="M34.1406 29.5927V9.54102H37.9411V29.5927H34.1406Z" fill="#122658"/>
<path d="M44.2875 23.9487C44.7916 25.7522 46.1877 26.6442 48.437 26.6442C49.8913 26.6442 50.9771 26.1594 51.7334 25.2092L54.797 26.9351C53.3428 28.9713 51.2098 29.9991 48.3788 29.9991C45.9551 29.9991 43.9966 29.2816 42.523 27.8465C41.0493 26.4115 40.3125 24.608 40.3125 22.4361C40.3125 20.2835 41.0299 18.48 42.4842 17.045C43.9385 15.61 45.7999 14.873 48.0686 14.873C50.2209 14.873 52.0048 15.5906 53.4009 17.045C54.797 18.4994 55.5145 20.2835 55.5145 22.4361C55.5145 22.9403 55.4563 23.4445 55.3593 23.9487H44.2875ZM44.2293 21.098H51.7334C51.5201 20.1284 51.0741 19.3915 50.3954 18.9261C49.7168 18.4412 48.9218 18.1891 48.088 18.2085C47.0603 18.2085 46.2265 18.4606 45.5673 18.9648C44.8692 19.4884 44.3845 20.2447 44.2293 21.098Z" fill="#122658"/>
<path d="M66.1407 18.8305H62.825V24.7839C62.825 25.2881 62.9413 25.6372 63.2128 25.8699C63.523 26.122 63.9302 26.2577 64.3374 26.2577C64.9385 26.2771 65.559 26.2771 66.1601 26.2384V29.5932C63.5424 29.8841 61.7197 29.632 60.6533 28.8757C59.5868 28.1194 59.0439 26.7426 59.0439 24.7839V18.8305H56.4844V15.2817H59.0439V12.3728L62.8444 11.248V15.2623H66.1601L66.1407 18.8305Z" fill="#122658"/>
<path d="M76.9798 14.8739C78.5892 14.8739 79.9078 15.3975 80.9742 16.4447C82.0213 17.4919 82.5449 18.9463 82.5449 20.808V29.6121H78.7638V21.2734C78.7638 20.3232 78.4923 19.5863 77.9687 19.0821C77.4452 18.5779 76.7278 18.3258 75.8552 18.3258C74.8663 18.3258 74.0907 18.6166 73.509 19.2178C72.9273 19.819 72.617 20.6916 72.6364 21.894V29.6315H68.8359V9.54102H72.6364V16.8713C73.5284 15.5333 74.9826 14.8739 76.9798 14.8739Z" fill="#122658"/>
<path d="M94.7989 15.2812H98.5994V29.6122H94.7989V28.0026C93.8876 29.3407 92.4139 30 90.4167 30C88.8074 30 87.4694 29.4764 86.4224 28.4292C85.3753 27.382 84.8517 25.9276 84.8517 24.0659V15.2812H88.6522V23.6199C88.6522 24.5701 88.9237 25.307 89.4472 25.8112C89.9708 26.3154 90.6882 26.5675 91.5608 26.5675C92.5497 26.5675 93.3253 26.2767 93.907 25.6755C94.4887 25.0743 94.7796 24.2017 94.7796 23.0187L94.7989 15.2812Z" fill="#122658"/>
<path d="M109.789 14.8739C111.709 14.8545 113.551 15.6496 114.869 17.0653C116.266 18.5197 116.964 20.3232 116.964 22.4369C116.964 24.5507 116.266 26.3542 114.869 27.8086C113.57 29.2243 111.728 30.0194 109.789 30C107.734 30 106.144 29.3018 105.019 27.9056V29.5927H101.219V9.54102H105.019V16.9683C106.124 15.572 107.714 14.8739 109.789 14.8739ZM106.163 25.3458C106.939 26.1021 107.986 26.5093 109.072 26.4706C110.158 26.5093 111.224 26.1021 112 25.3458C112.775 24.5895 113.163 23.6199 113.163 22.4369C113.163 21.254 112.775 20.2844 112 19.5281C111.224 18.7718 110.158 18.3645 109.072 18.4033C107.986 18.3645 106.939 18.7718 106.163 19.5281C105.407 20.2844 105.019 21.254 105.019 22.4369C105.019 23.6199 105.388 24.5895 106.163 25.3458Z" fill="#122658"/>
<path d="M0 0H6.7672V30H6.49573C2.90854 30 0 27.0911 0 23.4842V0Z" fill="#135DDC"/>
<path d="M16.1734 0H9.40625V30H16.1734V0Z" fill="#135DDC"/>
<path d="M18.8047 11.4414H19.0762C22.6633 11.4414 25.5913 14.3503 25.5913 17.9379V29.9999H18.8047V11.4414Z" fill="#135DDC"/>
</svg>
